<?xml version="1.0" encoding="utf-8"?>
<!-- Generator: Adobe Illustrator 20.1.0, SVG Export Plug-In . SVG Version: 6.00 Build 0)  -->
<svg version="1.1" id="Livello_1" xmlns="http://www.w3.org/2000/svg" xmlns:xlink="http://www.w3.org/1999/xlink" x="0px" y="0px"
	 width="566.9px" height="566.9px" viewBox="0 0 566.9 566.9" style="enable-background:new 0 0 566.9 566.9;" xml:space="preserve"
	>
<style type="text/css">
	.st0{clip-path:url(#SVGID_2_);}
	.st1{clip-path:url(#SVGID_4_);}
</style>
<g>
	<g>
		<g>
			<defs>
				<rect id="SVGID_1_" x="-14.2" y="-14.2" width="595.3" height="595.3"/>
			</defs>
			<clipPath id="SVGID_2_">
				<use xlink:href="#SVGID_1_"  style="overflow:visible;"/>
			</clipPath>
			<g class="st0">
				<g>
					<g>
						<g>
							<defs>
								<rect id="SVGID_3_" x="35.4" y="144.5" width="496.1" height="253.2"/>
							</defs>
							<clipPath id="SVGID_4_">
								<use xlink:href="#SVGID_3_"  style="overflow:visible;"/>
							</clipPath>
							<g class="st1">
								<path d="M510.8,351.2h-69.2c-42.4,0-76.5-34.1-76.5-76.5s34.1-76.5,76.5-76.5c1,0,2.1,0,2.1,0c9.3,1,18.6-4.1,21.7-13.4
									c4.1-10.3-2.1-22.7-12.4-25.8c-23.8-10.3-49.6-14.5-76.5-14.5c-97.1,0-184,59.9-220.1,148.8c0,1-3.1,5.2-3.1,6.2
									c-20.7,35.1-56.8,55.8-97.1,56.8c-11.4,0-20.7,9.3-20.7,20.7c0,11.4,9.3,20.7,20.7,20.7c53.7,0,104.4-28.9,132.3-76.5
									c1-2.1,5.2-9.3,6.2-11.4c27.9-71.3,94.1-118.8,169.5-124c-24.8,21.7-40.3,53.7-40.3,88.9c0,64.1,51.7,116.8,115.7,117.8
									h71.3c11.4,0,20.7-9.3,20.7-20.7S522.2,351.2,510.8,351.2z"/>
							</g>
						</g>
					</g>
				</g>
			</g>
		</g>
	</g>
</g>
</svg>
